<svg width="10" height="10" viewBox="0 0 10 10" fill="none" xmlns="http://www.w3.org/2000/svg">
<path d="M5.61952 9.75H3.61952M7.61952 3.25C7.61952 2.45435 7.30345 1.69129 6.74084 1.12868C6.17823 0.56607 5.41517 0.25 4.61952 0.25C3.82387 0.25 3.06081 0.56607 2.4982 1.12868C1.93559 1.69129 1.61952 2.45435 1.61952 3.25C1.61952 4.79509 1.22975 5.85298 0.794349 6.55271C0.42708 7.14294 0.243445 7.43805 0.250179 7.52038C0.257634 7.61154 0.276946 7.6463 0.350404 7.70079C0.416746 7.75 0.715811 7.75 1.31394 7.75H7.92509C8.52322 7.75 8.82229 7.75 8.88863 7.70079C8.96209 7.6463 8.9814 7.61154 8.98885 7.52038C8.99559 7.43805 8.81195 7.14294 8.44468 6.55271C8.00928 5.85298 7.61952 4.79509 7.61952 3.25Z" stroke="white" stroke-width="0.5" stroke-linecap="round" stroke-linejoin="round"/>
</svg>
