<svg width="6" height="6" viewBox="0 0 6 6" fill="none" xmlns="http://www.w3.org/2000/svg">
<g clip-path="url(#clip0_7511_31498)">
<path fill-rule="evenodd" clip-rule="evenodd" d="M1.85257 0.890385C1.32186 0.890385 0.890385 1.32249 0.890385 1.85706C0.890385 2.41609 1.21493 2.99741 1.65532 3.53452C2.04209 4.00625 2.49675 4.4187 2.83959 4.72451C3.18242 4.4187 3.63708 4.00625 4.02386 3.53452C4.46425 2.99741 4.7888 2.41609 4.7888 1.85706C4.7888 1.32249 4.35731 0.890385 3.82661 0.890385C3.51004 0.890385 3.33902 1.00048 3.23328 1.11984C3.13447 1.23136 3.08429 1.35735 3.03838 1.47257C3.03039 1.49262 3.02253 1.51236 3.01457 1.53163C2.9853 1.60245 2.91622 1.64865 2.83959 1.64865C2.76296 1.64865 2.69388 1.60246 2.66461 1.53163C2.65664 1.51236 2.64878 1.49262 2.64079 1.47255C2.59489 1.35734 2.5447 1.23136 2.4459 1.11984C2.34015 1.00048 2.16913 0.890385 1.85257 0.890385ZM0.511719 1.85706C0.511719 1.11475 1.11134 0.511719 1.85257 0.511719C2.27476 0.511719 2.54991 0.666219 2.72933 0.868733C2.77165 0.91651 2.8081 0.966626 2.83959 1.01647C2.87108 0.966626 2.90752 0.91651 2.94984 0.868733C3.12926 0.666219 3.40441 0.511719 3.82661 0.511719C4.56781 0.511719 5.16747 1.11475 5.16747 1.85706C5.16747 2.55195 4.77127 3.22017 4.31668 3.77461C3.88606 4.29979 3.37802 4.75215 3.03119 5.06099C3.00864 5.08106 2.98676 5.10056 2.96564 5.11938C2.89382 5.18349 2.78535 5.18349 2.71353 5.11938C2.69241 5.10056 2.67054 5.08106 2.64799 5.06099C2.30115 4.75215 1.7931 4.29979 1.3625 3.77461C0.907895 3.22017 0.511719 2.55195 0.511719 1.85706Z" fill="white" fill-opacity="0.8"/>
</g>
<defs>
<clipPath id="clip0_7511_31498">
<rect width="5.68" height="5.68" fill="white"/>
</clipPath>
</defs>
</svg>
