<svg width="13" height="13" viewBox="0 0 13 13" fill="none" xmlns="http://www.w3.org/2000/svg">
<g clip-path="url(#clip0_7511_31336)">
<path d="M1.19922 4.3125L3.79614 6.04378C3.94596 6.14366 4.02087 6.1936 4.10192 6.22898C4.17385 6.26038 4.24923 6.28321 4.32651 6.29698C4.41356 6.3125 4.5036 6.3125 4.68366 6.3125H7.71478C7.89484 6.3125 7.98487 6.3125 8.07193 6.29698C8.1492 6.28321 8.22459 6.26038 8.29652 6.22898C8.37756 6.1936 8.45248 6.14366 8.6023 6.04378L11.1992 4.3125M3.59922 10.8125H8.79922C9.6393 10.8125 10.0593 10.8125 10.3802 10.649C10.6624 10.5052 10.8919 10.2757 11.0357 9.99349C11.1992 9.67262 11.1992 9.25258 11.1992 8.4125V5.2125C11.1992 4.37242 11.1992 3.95238 11.0357 3.63151C10.8919 3.34927 10.6624 3.1198 10.3802 2.97599C10.0593 2.8125 9.6393 2.8125 8.79922 2.8125H3.59922C2.75914 2.8125 2.3391 2.8125 2.01823 2.97599C1.73599 3.1198 1.50652 3.34927 1.36271 3.63151C1.19922 3.95238 1.19922 4.37242 1.19922 5.2125V8.4125C1.19922 9.25258 1.19922 9.67262 1.36271 9.99349C1.50652 10.2757 1.73599 10.5052 2.01823 10.649C2.3391 10.8125 2.75914 10.8125 3.59922 10.8125Z" stroke="white" stroke-width="0.5" stroke-linecap="round" stroke-linejoin="round"/>
</g>
<defs>
<clipPath id="clip0_7511_31336">
<rect width="12" height="12" fill="white" transform="translate(0.199219 0.8125)"/>
</clipPath>
</defs>
</svg>
