<svg width="7" height="7" viewBox="0 0 7 7" fill="none" xmlns="http://www.w3.org/2000/svg">
<path d="M3.33975 5.84552C3.83515 5.84552 4.31943 5.69862 4.73134 5.42339C5.14325 5.14816 5.4643 4.75696 5.65388 4.29927C5.84346 3.84158 5.89306 3.33795 5.79641 2.85207C5.69977 2.36619 5.46121 1.91988 5.11091 1.56957C4.76061 1.21927 4.31429 0.980715 3.82841 0.884067C3.34253 0.78742 2.8389 0.837023 2.38121 1.0266C1.92352 1.21619 1.53232 1.53723 1.25709 1.94914C0.981864 2.36105 0.834961 2.84533 0.834961 3.34073C0.834961 3.75486 0.935153 4.14532 1.11327 4.48932L0.834961 5.84552L2.19117 5.56721C2.53516 5.74533 2.92591 5.84552 3.33975 5.84552Z" stroke="white" stroke-width="0.1744" stroke-linecap="round" stroke-linejoin="round"/>
</svg>
