<svg width="16" height="16" viewBox="0 0 16 16" fill="none" xmlns="http://www.w3.org/2000/svg">
<path d="M14.1757 13.82L10.882 10.5263C11.8051 9.51077 12.2945 8.17449 12.2455 6.80299C12.1965 5.43149 11.613 4.13353 10.6198 3.18649C9.62655 2.23944 8.3023 1.71841 6.93002 1.73475C5.55774 1.75108 4.24627 2.30348 3.27585 3.2739C2.30543 4.24431 1.75303 5.55579 1.7367 6.92807C1.72037 8.30035 2.24139 9.6246 3.18844 10.6178C4.13549 11.6111 5.43344 12.1945 6.80494 12.2435C8.17645 12.2925 9.51272 11.8032 10.5282 10.88L13.822 14.1738C13.8689 14.2207 13.9325 14.247 13.9988 14.247C14.0652 14.247 14.1288 14.2207 14.1757 14.1738C14.2226 14.1269 14.249 14.0632 14.249 13.9969C14.249 13.9306 14.2226 13.8669 14.1757 13.82ZM2.24885 6.99689C2.24885 6.05743 2.52743 5.13907 3.04937 4.35794C3.5713 3.5768 4.31315 2.96798 5.1811 2.60847C6.04905 2.24895 7.00412 2.15488 7.92553 2.33816C8.84694 2.52144 9.69331 2.97384 10.3576 3.63814C11.0219 4.30244 11.4743 5.14881 11.6576 6.07022C11.8409 6.99162 11.7468 7.94669 11.3873 8.81464C11.0278 9.68259 10.4189 10.4244 9.63781 10.9464C8.85667 11.4683 7.93831 11.7469 6.99885 11.7469C5.73948 11.7456 4.53206 11.2447 3.64155 10.3542C2.75104 9.46368 2.25017 8.25627 2.24885 6.99689Z" fill="white"/>
</svg>
