<svg width="11" height="11" viewBox="0 0 11 11" fill="none" xmlns="http://www.w3.org/2000/svg">
<g clip-path="url(#clip0_7511_31515)">
<path d="M6.80322 7.75547L8.04572 6.51297M8.04572 6.51297L9.28822 7.75547M8.04572 6.51297V8.99797M6.59613 1.66339C7.20327 1.90915 7.63155 2.50438 7.63155 3.19964C7.63155 3.89489 7.20327 4.49012 6.59613 4.73588M5.14655 6.51297H3.48988C2.71797 6.51297 2.33202 6.51297 2.02757 6.63908C1.62164 6.80722 1.29913 7.12973 1.13099 7.53566C1.00488 7.8401 1.00488 8.22606 1.00488 8.99797M5.7678 3.19964C5.7678 4.11459 5.02608 4.8563 4.11113 4.8563C3.19618 4.8563 2.45447 4.11459 2.45447 3.19964C2.45447 2.28468 3.19618 1.54297 4.11113 1.54297C5.02608 1.54297 5.7678 2.28468 5.7678 3.19964Z" stroke="white" stroke-width="0.426" stroke-linecap="round" stroke-linejoin="round"/>
</g>
<defs>
<clipPath id="clip0_7511_31515">
<rect width="9.94" height="9.94" fill="white" transform="translate(0.176758 0.300781)"/>
</clipPath>
</defs>
</svg>
