<svg width="65" height="17" viewBox="0 0 65 17" fill="none" xmlns="http://www.w3.org/2000/svg">
<path d="M15.1407 6.93843C15.3476 7.91158 15.3601 8.91606 15.1777 9.8941C14.5231 9.87007 13.8899 9.65443 13.3565 9.27387C12.8231 8.89331 12.413 8.36456 12.1769 7.75307C12.1665 7.69234 12.1547 7.63087 12.1421 7.57015C12.1013 7.37783 12.0481 7.18834 11.983 7.00286C11.6656 6.10547 11.0714 5.33228 10.2862 4.79501C9.50095 4.25773 8.56537 3.9842 7.61462 4.01392C6.66387 4.04364 5.74717 4.37508 4.99698 4.96036C4.2468 5.54563 3.70196 6.35443 3.44119 7.26989C3.18043 8.18536 3.21724 9.16008 3.54631 10.0532C3.87538 10.9464 4.47966 11.7117 5.27185 12.2387C6.06404 12.7656 7.00312 13.0269 7.9534 12.9847C8.90368 12.9425 9.81596 12.5991 10.5584 12.004C11.0779 12.142 11.5564 12.4032 11.9537 12.7654C12.351 13.1276 12.6552 13.5803 12.8407 14.0851C11.7622 15.0691 10.422 15.7194 8.98214 15.9573C7.54223 16.1952 6.06429 16.0105 4.72705 15.4255C3.38981 14.8406 2.25055 13.8805 1.44704 12.6613C0.643528 11.4421 0.210189 10.016 0.199424 8.55556C0.18866 7.0951 0.600931 5.6628 1.38638 4.43187C2.17183 3.20094 3.29682 2.2241 4.62529 1.61949C5.95376 1.01488 7.42882 0.808393 8.87208 1.025C10.3153 1.24161 11.665 1.87204 12.7578 2.84004C13.0502 3.0977 13.3223 3.37748 13.5718 3.6769C14.3522 4.62012 14.8907 5.73969 15.1407 6.93843Z" fill="#FF4C0C"/>
<path d="M18.0752 12.7037C18.181 13.2203 18.0931 13.7578 17.8284 14.2137C17.5637 14.6697 17.1407 15.0122 16.6398 15.1761C16.139 15.34 15.5954 15.3138 15.1127 15.1025C14.6299 14.8911 14.2417 14.5094 14.0221 14.0301C13.9617 13.8968 13.9155 13.7576 13.8844 13.6146C13.5541 12.7635 12.9725 12.0333 12.217 11.5213C11.4616 11.0093 10.5683 10.7397 9.65592 10.7485L9.58192 10.7671C9.18111 10.8513 8.76435 10.8148 8.38427 10.6621C8.00419 10.5095 7.67784 10.2475 7.44644 9.90934C7.21503 9.57118 7.08896 9.17197 7.08413 8.76214C7.0793 8.35231 7.19594 7.95024 7.41931 7.60671C7.64269 7.26318 7.96278 6.9936 8.33916 6.83201C8.71554 6.67043 9.13132 6.62409 9.534 6.69885C9.93668 6.77361 10.3082 6.96611 10.6016 7.25204C10.895 7.53797 11.0972 7.90451 11.1826 8.30536C11.187 8.32758 11.1907 8.3498 11.1952 8.37202C11.4095 8.86198 11.7103 9.30928 12.0832 9.69248L12.0913 9.70136C12.832 10.4596 13.8164 10.9317 14.8709 11.0344H14.8835C15.2595 11.0692 15.6383 11.0567 16.0113 10.9974C16.4976 11.0056 16.9667 11.179 17.3417 11.489C17.7167 11.799 17.9753 12.2273 18.0752 12.7037Z" fill="white"/>
<path d="M22.1191 8.69111V8.3897C22.1191 7.26275 22.9762 6.46885 24.2114 6.46094C25.4465 6.46885 26.3109 7.25484 26.3109 8.3897V8.69111C26.3109 9.88967 25.4972 10.6515 24.2114 10.6515C22.9255 10.6515 22.1191 9.88967 22.1191 8.69111ZM24.9454 8.86554V8.23858C24.9454 7.78064 24.6836 7.38182 24.2259 7.38182C23.7392 7.38182 23.485 7.77065 23.485 8.23858V8.86554C23.485 9.31016 23.7392 9.73064 24.2114 9.73064C24.6836 9.73064 24.9454 9.31016 24.9454 8.86554Z" fill="white"/>
<path d="M26.3545 12.1273V6.57209H27.7131V6.67534C27.7036 6.81617 27.6691 6.95362 27.6114 7.07999L27.553 7.19905L27.5748 7.21487L27.7131 7.01671C27.9162 6.67534 28.3739 6.46094 28.7954 6.46094C29.8488 6.46094 30.5028 7.17533 30.5028 8.42925V8.72275C30.5028 9.86552 29.8488 10.6515 28.7954 10.6515C28.3884 10.6515 27.9673 10.485 27.7566 10.1436H27.7131V12.1273H26.3545ZM29.1514 8.73066V8.38179C29.1514 7.77065 28.8534 7.38265 28.4395 7.38265C28.0107 7.38265 27.7204 7.76357 27.7204 8.35848V8.76355C27.7204 9.36637 28.018 9.73938 28.4612 9.73938C28.8755 9.73855 29.1514 9.36553 29.1514 8.73066Z" fill="white"/>
<path d="M30.5557 8.69111V8.3897C30.5557 7.26275 31.4128 6.46885 32.6479 6.46094C33.883 6.46885 34.7474 7.25484 34.7474 8.3897V8.83224H31.9215V8.90384C31.9215 9.34805 32.1757 9.72897 32.6479 9.72897C32.9909 9.72897 33.2218 9.53081 33.3381 9.14988H34.6967C34.5221 10.0941 33.7523 10.6486 32.6479 10.6486C31.3621 10.6515 30.5557 9.88967 30.5557 8.69111ZM33.3583 8.06415C33.3003 7.64367 33.0534 7.38182 32.6609 7.38182C32.2759 7.38182 32.0069 7.62785 31.9345 8.06415H33.3583Z" fill="white"/>
<path d="M34.8223 10.537V6.57H36.1805V6.62579C36.1733 6.74485 36.1298 6.85559 36.0353 7.00671L35.9972 7.0779L36.0189 7.10163L36.1786 6.9272C36.3182 6.77545 36.4841 6.65571 36.6666 6.57499C36.8491 6.49428 37.0446 6.45423 37.2415 6.45718C38.2876 6.44927 38.8398 7.09206 38.8398 8.31434V10.537H37.4812V8.23649C37.4812 7.68114 37.2906 7.37973 36.8562 7.37973C36.4057 7.37973 36.1805 7.72068 36.1805 8.26064V10.537H34.8223Z" fill="white"/>
<path d="M43.9109 11.0177C43.5622 11.0093 43.0389 10.7795 42.6757 10.5256C42.3772 10.6109 42.0697 10.6529 41.7611 10.6505C39.7706 10.6505 38.9932 9.11886 38.9932 7.80915V7.73172C38.9932 6.43033 39.7706 4.875 41.7611 4.875C43.7733 4.875 44.4928 6.43033 44.4928 7.73172V7.81123C44.4928 8.55726 44.2603 9.37448 43.6864 9.93025C43.9696 10.0889 44.0786 10.1384 44.5073 10.2475L43.9109 11.0177ZM43.1624 7.81207V7.73172C43.1624 6.95405 42.8194 5.93826 41.7603 5.93826C40.6704 5.94617 40.3503 6.95405 40.3503 7.73172V7.81123C40.3503 8.59681 40.6696 9.58097 41.7603 9.58888C42.8209 9.58888 43.1624 8.59681 43.1624 7.81123V7.81207Z" fill="white"/>
<path d="M44.7539 8.79258V6.57031H46.1053V8.87209C46.1053 9.42745 46.2939 9.72886 46.6426 9.72886C47.0859 9.72886 47.4128 9.3879 47.4128 8.84794V6.57031H48.7642V10.5373H47.4128V10.4499C47.431 10.3202 47.4784 10.1974 47.5508 10.0927L47.5801 10.0294L47.5653 10.0057L47.4128 10.1801C47.1659 10.4578 46.7882 10.6485 46.3458 10.6485C45.2989 10.6576 44.7539 10.0149 44.7539 8.79258Z" fill="white"/>
<path d="M48.9229 9.49027C48.9229 8.67305 49.5768 8.36331 50.456 8.2047L51.3059 8.06191C51.4202 8.04609 51.48 7.99072 51.48 7.9112V7.87956C51.48 7.68889 51.2548 7.52237 50.9499 7.52237C50.6069 7.52237 50.4194 7.6968 50.3615 7.89705H49.0318C49.0593 7.11772 49.8383 6.45703 51.0006 6.45703C52.134 6.45703 52.9061 6.98075 52.9061 7.86208V10.5369H51.671V10.4178C51.671 10.2829 51.7091 10.1639 51.7655 10.0211L51.8306 9.88618L51.8162 9.87827L51.671 10.0923C51.395 10.4969 50.7918 10.648 50.3051 10.648C49.4751 10.6493 48.9229 10.1651 48.9229 9.49027ZM51.4873 9.14931V8.82375L50.7174 8.97446C50.4194 9.03815 50.2742 9.14931 50.2742 9.3712C50.2742 9.57936 50.4777 9.71258 50.7609 9.71258C51.1553 9.71258 51.4873 9.49027 51.4873 9.14931Z" fill="white"/>
<path d="M53.2314 10.5371V6.57003H54.5901V6.62582C54.5828 6.74488 54.539 6.85562 54.4445 7.00674L54.4064 7.07793L54.4281 7.10166L54.5882 6.92723C54.7279 6.77524 54.894 6.65535 55.0769 6.57463C55.2597 6.49391 55.4554 6.45398 55.6526 6.45721C56.6987 6.4493 57.2509 7.09209 57.2509 8.31437V10.5371H55.8923V8.23652C55.8923 7.68116 55.7017 7.37976 55.2677 7.37976C54.8172 7.37976 54.592 7.72071 54.592 8.26067V10.5371H53.2314Z" fill="white"/>
<path d="M60.2564 10.5867C59.3989 10.7295 58.732 10.6583 58.389 10.3964C58.0696 10.1662 57.9461 9.8727 57.9461 9.41226V7.63462H57.3066V6.57094H57.7209C57.8878 6.57094 57.9823 6.47561 57.9823 6.317V5.77579L59.3265 5.48438V6.15047C59.3265 6.39651 59.1881 6.49976 59.0647 6.54721V6.56303L60.2491 6.57094V7.63462H59.3265V9.12667C59.3265 9.61833 59.6313 9.67412 60.2564 9.60251V10.5867Z" fill="white"/>
<path d="M60.3789 9.49027C60.3789 8.67305 61.0325 8.36331 61.9117 8.2047L62.7615 8.06191C62.8759 8.04609 62.9361 7.99072 62.9361 7.9112V7.87956C62.9361 7.68889 62.7109 7.52237 62.4056 7.52237C62.0626 7.52237 61.8755 7.6968 61.8172 7.89705H60.4879C60.5169 7.11772 61.2935 6.45703 62.4567 6.45703C63.59 6.45703 64.3599 6.98075 64.3599 7.86208V10.5369H63.1251V10.4178C63.1251 10.2829 63.1632 10.1639 63.2192 10.0211L63.2848 9.88618L63.2703 9.87827L63.1251 10.0923C62.8488 10.4969 62.2459 10.648 61.7592 10.648C60.9307 10.6493 60.3789 10.1651 60.3789 9.49027ZM62.9433 9.14931V8.82375L62.1731 8.97446C61.8755 9.03815 61.7299 9.14931 61.7299 9.3712C61.7299 9.57936 61.9334 9.71258 62.2169 9.71258C62.6091 9.71258 62.9433 9.49027 62.9433 9.14931Z" fill="white"/>
</svg>
