<svg width="18" height="15" viewBox="0 0 18 15" fill="none" xmlns="http://www.w3.org/2000/svg">
<path d="M15.0261 6.10487C15.2228 7.03023 15.2348 7.98539 15.0613 8.91539C14.4388 8.89255 13.8367 8.68749 13.3295 8.32562C12.8223 7.96376 12.4323 7.46096 12.2078 6.87951C12.198 6.82176 12.1867 6.76331 12.1747 6.70557C12.1359 6.52269 12.0854 6.34251 12.0234 6.16614C11.7217 5.31281 11.1566 4.57759 10.41 4.0667C9.66331 3.55582 8.77367 3.29571 7.86961 3.32397C6.96555 3.35224 6.09387 3.6674 5.38052 4.22394C4.66717 4.78047 4.14909 5.54955 3.90113 6.42006C3.65317 7.29056 3.68818 8.21742 4.00108 9.06672C4.31399 9.91601 4.8886 10.6438 5.64189 11.1448C6.39518 11.6459 7.28814 11.8943 8.19175 11.8542C9.09537 11.8141 9.96285 11.4875 10.6689 10.9217C11.1628 11.0529 11.6179 11.3012 11.9956 11.6457C12.3734 11.9901 12.6627 12.4206 12.839 12.9006C11.8136 13.8363 10.5392 14.4546 9.16998 14.6808C7.80078 14.907 6.39541 14.7314 5.12384 14.1752C3.85227 13.619 2.76895 12.706 2.0049 11.5467C1.24085 10.3874 0.828791 9.03133 0.818555 7.64259C0.808319 6.25385 1.20034 4.89188 1.94722 3.7214C2.6941 2.55092 3.76384 1.62205 5.02708 1.04713C6.29031 0.472209 7.69294 0.275862 9.06532 0.481834C10.4377 0.687805 11.7211 1.28727 12.7602 2.20774C13.0382 2.45275 13.297 2.71879 13.5343 3.0035C14.2763 3.9004 14.7884 4.965 15.0261 6.10487Z" fill="white"/>
<path d="M17.8167 11.5868C17.9173 12.078 17.8338 12.5891 17.5821 13.0227C17.3303 13.4562 16.9281 13.782 16.4518 13.9378C15.9756 14.0937 15.4587 14.0687 14.9996 13.8678C14.5406 13.6668 14.1715 13.3038 13.9626 12.848C13.9052 12.7213 13.8613 12.5889 13.8317 12.453C13.5176 11.6437 12.9645 10.9493 12.2462 10.4624C11.5279 9.97557 10.6784 9.71926 9.81087 9.72766L9.7405 9.74526C9.35938 9.82536 8.96308 9.79064 8.60167 9.64548C8.24025 9.50031 7.92993 9.25122 7.70989 8.92966C7.48985 8.6081 7.36996 8.2285 7.36537 7.8388C7.36078 7.44909 7.47169 7.06677 7.6841 6.74011C7.8965 6.41345 8.20087 6.1571 8.55877 6.00345C8.91666 5.84981 9.31203 5.80574 9.69494 5.87683C10.0778 5.94792 10.4311 6.13096 10.7101 6.40285C10.9891 6.67475 11.1814 7.02329 11.2626 7.40445C11.2668 7.42558 11.2703 7.4467 11.2745 7.46783C11.4784 7.93373 11.7644 8.35906 12.119 8.72345L12.1267 8.7319C12.831 9.45286 13.767 9.90178 14.7697 9.99949H14.7817C15.1392 10.0325 15.4995 10.0207 15.8541 9.96428C16.3166 9.97213 16.7626 10.137 17.1192 10.4317C17.4758 10.7265 17.7217 11.1338 17.8167 11.5868Z" fill="white"/>
</svg>
