<svg width="9" height="8" viewBox="0 0 9 8" fill="none" xmlns="http://www.w3.org/2000/svg">
<path d="M8.59903 6.25649L7.26278 7.69198C7.23369 7.72316 7.19861 7.74802 7.15949 7.76501C7.12045 7.782 7.07837 7.79076 7.03579 7.79073H0.70103C0.670758 7.79073 0.641246 7.78189 0.615949 7.76528C0.590653 7.74868 0.570752 7.72505 0.558694 7.69728C0.546721 7.66951 0.543011 7.63883 0.548154 7.60899C0.553214 7.57915 0.566958 7.55146 0.587617 7.52933L1.92488 6.09384C1.95388 6.06274 1.98888 6.03793 2.02783 6.02095C2.06679 6.00395 2.10878 5.99515 2.1512 5.99508H8.48561C8.51589 5.99508 8.5454 6.00393 8.5707 6.02053C8.59599 6.03714 8.61589 6.06077 8.62795 6.08854C8.63992 6.11631 8.64363 6.14699 8.63849 6.17682C8.63343 6.20666 8.61969 6.23435 8.59903 6.25649ZM7.26278 3.36583C7.23369 3.33465 7.19861 3.30979 7.15949 3.2928C7.12045 3.27581 7.07837 3.26705 7.03579 3.26707H0.70103C0.670758 3.26707 0.641246 3.27592 0.615949 3.29252C0.590653 3.30912 0.570752 3.33276 0.558694 3.36053C0.546721 3.38829 0.543011 3.41898 0.548154 3.44882C0.553214 3.47865 0.566958 3.50634 0.587617 3.52848L1.92488 4.96396C1.95388 4.99506 1.98888 5.01987 2.02783 5.03686C2.06679 5.05385 2.10878 5.06265 2.1512 5.06272H8.48561C8.51589 5.06272 8.5454 5.05388 8.5707 5.03727C8.59599 5.02067 8.61589 4.99704 8.62795 4.96927C8.63992 4.9415 8.64363 4.91082 8.63849 4.88097C8.63343 4.85114 8.61969 4.82345 8.59903 4.80132L7.26278 3.36583ZM0.70103 2.33471H7.03579C7.07837 2.33474 7.12045 2.32598 7.15949 2.30899C7.19861 2.292 7.23369 2.26714 7.26278 2.23595L8.59903 0.800468C8.61969 0.778332 8.63343 0.750644 8.63849 0.720808C8.64363 0.690971 8.63992 0.660283 8.62795 0.632517C8.61589 0.60475 8.59599 0.581114 8.5707 0.564511C8.5454 0.547909 8.51589 0.539064 8.48561 0.539062H2.1512C2.10878 0.539135 2.06679 0.547937 2.02783 0.564925C1.98888 0.581913 1.95388 0.606724 1.92488 0.637824L0.587954 2.07331C0.567295 2.09542 0.553636 2.12308 0.548493 2.15289C0.543349 2.18269 0.546975 2.21335 0.559033 2.24111C0.571007 2.26886 0.590822 2.29249 0.616034 2.30913C0.64133 2.32576 0.670843 2.33464 0.70103 2.33471Z" fill="url(#paint0_linear_7511_31486)"/>
<defs>
<linearGradient id="paint0_linear_7511_31486" x1="1.22922" y1="7.96357" x2="7.8844" y2="0.473482" gradientUnits="userSpaceOnUse">
<stop offset="0.08" stop-color="#9945FF"/>
<stop offset="0.3" stop-color="#8752F3"/>
<stop offset="0.5" stop-color="#5497D5"/>
<stop offset="0.6" stop-color="#43B4CA"/>
<stop offset="0.72" stop-color="#28E0B9"/>
<stop offset="0.97" stop-color="#19FB9B"/>
</linearGradient>
</defs>
</svg>
