<svg width="8" height="8" viewBox="0 0 8 8" fill="none" xmlns="http://www.w3.org/2000/svg">
<g clip-path="url(#clip0_7511_31482)">
<g clip-path="url(#clip1_7511_31482)">
<path fill-rule="evenodd" clip-rule="evenodd" d="M5.74257 0.917466C5.6721 0.804738 5.56823 0.716796 5.44542 0.66589C5.32261 0.614985 5.18698 0.60365 5.05742 0.633466L4.13841 0.845578C4.04424 0.86722 3.94637 0.86722 3.8522 0.845578L2.93275 0.63391C2.80326 0.604194 2.66772 0.615578 2.545 0.666479C2.42228 0.71738 2.31848 0.805266 2.24804 0.91791L1.7466 1.7171C1.69557 1.79875 1.62679 1.86798 1.54514 1.91945L0.745502 2.42089C0.633111 2.49125 0.545393 2.59484 0.494506 2.71728C0.44362 2.83973 0.432085 2.97497 0.461502 3.10427L0.672727 4.02549C0.694301 4.11953 0.694301 4.21723 0.672727 4.31127L0.461502 5.23072C0.431786 5.36021 0.44317 5.49574 0.494071 5.61846C0.544972 5.74118 0.632858 5.84498 0.745502 5.91542L1.54514 6.41686C1.62679 6.46745 1.69601 6.53667 1.74749 6.61832L2.24848 7.41796C2.3927 7.64871 2.66783 7.76275 2.93275 7.70196L3.8522 7.49074C3.94637 7.46909 4.04424 7.46909 4.13841 7.49074L5.05786 7.70196C5.18736 7.73168 5.32289 7.72029 5.44561 7.66939C5.56833 7.61849 5.67213 7.5306 5.74257 7.41796L6.24356 6.61832C6.2946 6.53667 6.36338 6.46745 6.44547 6.41642L7.24555 5.91542C7.35812 5.84483 7.44588 5.7409 7.49662 5.6181C7.54737 5.4953 7.55857 5.35974 7.52866 5.23027L7.31833 4.31127C7.29669 4.21709 7.29669 4.11923 7.31833 4.02505L7.52911 3.10515C7.55891 2.97576 7.54766 2.84029 7.49692 2.71758C7.44618 2.59487 7.35848 2.49101 7.246 2.42045L6.44591 1.91945C6.36424 1.86824 6.29522 1.79922 6.24401 1.71755L5.74257 0.917466ZM5.4852 3.0275C5.51634 2.96943 5.52386 2.90158 5.50618 2.8381C5.48851 2.77462 5.44699 2.72042 5.39032 2.68682C5.33364 2.65321 5.26617 2.64279 5.20199 2.65773C5.13781 2.67268 5.08189 2.71183 5.04588 2.76702L3.70886 5.03014L2.90168 4.25713C2.87769 4.23271 2.84904 4.21337 2.81743 4.20023C2.78582 4.1871 2.75189 4.18045 2.71766 4.18068C2.68344 4.18091 2.6496 4.18801 2.61817 4.20156C2.58674 4.21512 2.55835 4.23485 2.53468 4.25958C2.51102 4.28431 2.49257 4.31355 2.48042 4.34555C2.46826 4.37755 2.46267 4.41166 2.46395 4.44587C2.46524 4.48007 2.47338 4.51367 2.48789 4.54467C2.50241 4.57567 2.52301 4.60344 2.54846 4.62633L3.58816 5.62255C3.61595 5.64925 3.64942 5.66931 3.68606 5.68122C3.7227 5.69314 3.76157 5.6966 3.79974 5.69135C3.83791 5.6861 3.8744 5.67227 3.90646 5.6509C3.93853 5.62953 3.96534 5.60118 3.98488 5.56797L5.4852 3.0275Z" fill="#0088CC"/>
</g>
</g>
<defs>
<clipPath id="clip0_7511_31482">
<rect width="7.1" height="7.1" fill="white" transform="translate(0.446289 0.617188)"/>
</clipPath>
<clipPath id="clip1_7511_31482">
<rect width="7.1" height="7.1" fill="white" transform="translate(0.446289 0.617188)"/>
</clipPath>
</defs>
</svg>
